<svg xmlns="http://www.w3.org/2000/svg" xmlns:xlink="http://www.w3.org/1999/xlink" viewBox="0 0 884.6 929.84"><defs><style>.cls-1{fill:#999;}.cls-2{fill:#b3b3b3;}.cls-3{opacity:0.7;}.cls-4{fill:#436120;}.cls-5{opacity:0.75;font-size:24.26px;fill:#fff;font-family:Roboto-Black, Roboto;font-weight:800;}.cls-6{letter-spacing:-0.01em;}.cls-7{letter-spacing:-0.06em;}.cls-8{letter-spacing:0.01em;}.cls-9{letter-spacing:-0.06em;}.cls-10{letter-spacing:0.01em;}.cls-11{letter-spacing:-0.01em;}.cls-12{letter-spacing:-0.09em;}.cls-13{letter-spacing:0.01em;}.cls-14{letter-spacing:-0.01em;}</style></defs><title>presentation</title><g id="Calque_2" data-name="Calque 2"><g id="Calque_5" data-name="Calque 5"><image width="1044" height="512" transform="scale(0.6)" xlink:href="../../../../logo%20test/logo_test3-02.png"/><path class="cls-1" d="M356.17,727.68s15.57,2.41,31.45-13.48c8.49-8.48,24.71-1.87,38.1-4a11.84,11.84,0,0,0,4.23-1.68c6.51-4,28.61-16.77,47.52-16.77,19.65,0,29-17.2,31-21.5a11.76,11.76,0,0,1,1.3-2.14c5.62-7.49,37.13-48.24,57.53-48.24,19.57,0,42.55-58,48.14-72.9.87-2.31,3.21-3.56,4.36-5.74,5.9-11.21,5.9-20.19,41.84-29.18,10.66-2.66,10-14.25,9.63-18.87a12.26,12.26,0,0,1,2.2-7.94c4.66-6.76,14.38-19.36,24.11-22.6,0,0,44.92-40.43,44.92-67.39s9-44.92,9-44.92-4.5-9-22.47-4.5l-4.49-9s-4.49,0-4.49,4.49-9,22.46-9,22.46l-35.94-13.47-13.48,31.44H473v9h4.49v9H374.14l22.47,35.94-53.91,58.4,13.47,31.45-9,13.48-4.49,18-4.5,4.49h-9L324.73,557H311.25l-4.49-4.49L311.25,539l-4.49-4.49h-4.5v9l-9,9-4.49,9v18l4.49,4.49v4.5h13.48l4.49,4.49h4.49l4.49,9-13.47,13.48,9,4.49,35.94,40.43-4.49,4.5-4.49,4.49H329.22l-9,4.49-4.49,4.49Z"/><path class="cls-2" d="M369.65,736.67,401.1,714.2l9,9,40.43-13.48L464,705.22l18-4.49,3.44-10,10,1,18-22.46h27l13.48-9,9-4.49,18-4.49,4.5-4.49,18-13.48,18-9,9-13.48,18-22.46,9-4.5,9-13.47L670.64,557l22.47-18L774,610.88l-62.89,89.85-9,71.88-13.48,9-4.49,9-9,4.5v13.47l-9,18s9,13.48,0,31.45a44.77,44.77,0,0,1-4.49,18c-4.49,9,9,9,9,9s9,9,4.5,13.47-22.47,9-22.47,9l-9,18-13.48-4.49-18,4.49H567.32l-4.49-27-9-4.49H540.36v-4.49h-9l-9-4.49-9,9,4.49,4.49v13.48l-4.49,4.49-18-4.49-9-9v18l-9,9h-9l-4.49-9v-18l-13.48-4.5L446,893.9h-4.49l-13.48-13.48L455,840l-4.5-4.49,9-13.48h9l9-13.48-18-18v-9l-9-13.48-9,4.5-9-9-22.46,18Z"/><polygon class="cls-2" points="517.9 664.79 531.38 664.79 544.86 660.29 544.86 651.31 558.33 655.8 567.32 642.33 571.81 628.85 571.81 619.86 549.35 628.85 544.86 637.83 535.87 642.33 531.38 651.31 526.89 651.31 517.9 664.79"/><g class="cls-3"><circle class="cls-4" cx="505.32" cy="664.79" r="106.02"/></g><text class="cls-5" transform="translate(427.59 513.75)">CAP<tspan class="cls-6" x="48.23" y="0">I</tspan><tspan class="cls-7" x="55.21" y="0">T</tspan><tspan x="69.08" y="0">ALE-</tspan><tspan class="cls-8" x="-4.48" y="29.11">N</tspan><tspan class="cls-9" x="12.76" y="29.11">A</tspan><tspan x="27.87" y="29.11">TIO</tspan><tspan class="cls-10" x="67.23" y="29.11">N</tspan><tspan x="84.47" y="29.11">ALE</tspan></text><text class="cls-5" transform="translate(510.5 798.57)">C<tspan class="cls-8" x="15.92" y="0">H</tspan><tspan class="cls-11" x="33.18" y="0">A</tspan><tspan x="49.5" y="0">UDIÈRE-</tspan><tspan x="-5.69" y="29.11">AP</tspan><tspan class="cls-12" x="26.62" y="29.11">P</tspan><tspan x="40.3" y="29.11">A</tspan><tspan class="cls-13" x="56.83" y="29.11">L</tspan><tspan class="cls-14" x="70.2" y="29.11">A</tspan><tspan x="86.48" y="29.11">CHES</tspan></text></g></g></svg>